<svg width="23" height="23" viewBox="0 0 23 23" fill="none" xmlns="http://www.w3.org/2000/svg">
<path fill-rule="evenodd" clip-rule="evenodd" d="M11.5002 16.6112C12.9116 16.6112 14.0558 17.7553 14.0558 19.1667C14.0558 20.5781 12.9116 21.7223 11.5002 21.7223C10.0888 21.7223 8.94464 20.5781 8.94464 19.1667C8.94464 17.7553 10.0888 16.6112 11.5002 16.6112ZM11.5002 8.94448C12.9116 8.94448 14.0558 10.0886 14.0558 11.5C14.0558 12.9114 12.9116 14.0556 11.5002 14.0556C10.0888 14.0556 8.94464 12.9114 8.94464 11.5C8.94464 10.0886 10.0888 8.94448 11.5002 8.94448ZM11.5002 1.27781C12.9116 1.27781 14.0558 2.42197 14.0558 3.83336C14.0558 5.24476 12.9116 6.38892 11.5002 6.38892C10.0888 6.38892 8.94464 5.24476 8.94464 3.83336C8.94464 2.42197 10.0888 1.27781 11.5002 1.27781Z" fill="white"/>
<mask id="mask0_0_1069" style="mask-type:luminance" maskUnits="userSpaceOnUse" x="8" y="1" width="7" height="21">
<path fill-rule="evenodd" clip-rule="evenodd" d="M11.5002 16.6112C12.9116 16.6112 14.0558 17.7553 14.0558 19.1667C14.0558 20.5781 12.9116 21.7223 11.5002 21.7223C10.0888 21.7223 8.94464 20.5781 8.94464 19.1667C8.94464 17.7553 10.0888 16.6112 11.5002 16.6112ZM11.5002 8.94448C12.9116 8.94448 14.0558 10.0886 14.0558 11.5C14.0558 12.9114 12.9116 14.0556 11.5002 14.0556C10.0888 14.0556 8.94464 12.9114 8.94464 11.5C8.94464 10.0886 10.0888 8.94448 11.5002 8.94448ZM11.5002 1.27781C12.9116 1.27781 14.0558 2.42197 14.0558 3.83336C14.0558 5.24476 12.9116 6.38892 11.5002 6.38892C10.0888 6.38892 8.94464 5.24476 8.94464 3.83336C8.94464 2.42197 10.0888 1.27781 11.5002 1.27781Z" fill="white"/>
</mask>
<g mask="url(#mask0_0_1069)">
</g>
</svg>
