<svg width="23" height="23" viewBox="0 0 23 23" fill="none" xmlns="http://www.w3.org/2000/svg">
<path fill-rule="evenodd" clip-rule="evenodd" d="M11.5 1.27781C14.3228 1.27781 16.6112 3.56613 16.6112 6.38892C16.6112 9.21171 14.3228 11.5 11.5 11.5C8.67725 11.5 6.38892 9.21171 6.38892 6.38892C6.38892 3.56613 8.67725 1.27781 11.5 1.27781ZM11.5 3.83336C10.0886 3.83336 8.94448 4.97753 8.94448 6.38892C8.94448 7.80032 10.0886 8.94448 11.5 8.94448C12.9114 8.94448 14.0556 7.80032 14.0556 6.38892C14.0556 4.97753 12.9114 3.83336 11.5 3.83336ZM11.5 12.7778C14.9117 12.7778 21.7223 14.4773 21.7223 17.8889V21.7223H1.27781V17.8889C1.27781 14.4773 8.08837 12.7778 11.5 12.7778ZM11.5 15.2056C7.70501 15.2056 3.70556 17.0712 3.70556 17.8889V19.2945H19.2945V17.8889C19.2945 17.0712 15.295 15.2056 11.5 15.2056Z" fill="#1E1F20"/>
<mask id="mask0_0_288" style="mask-type:luminance" maskUnits="userSpaceOnUse" x="1" y="1" width="21" height="21">
<path fill-rule="evenodd" clip-rule="evenodd" d="M11.5 1.27781C14.3228 1.27781 16.6112 3.56613 16.6112 6.38892C16.6112 9.21171 14.3228 11.5 11.5 11.5C8.67725 11.5 6.38892 9.21171 6.38892 6.38892C6.38892 3.56613 8.67725 1.27781 11.5 1.27781ZM11.5 3.83336C10.0886 3.83336 8.94448 4.97753 8.94448 6.38892C8.94448 7.80032 10.0886 8.94448 11.5 8.94448C12.9114 8.94448 14.0556 7.80032 14.0556 6.38892C14.0556 4.97753 12.9114 3.83336 11.5 3.83336ZM11.5 12.7778C14.9117 12.7778 21.7223 14.4773 21.7223 17.8889V21.7223H1.27781V17.8889C1.27781 14.4773 8.08837 12.7778 11.5 12.7778ZM11.5 15.2056C7.70501 15.2056 3.70556 17.0712 3.70556 17.8889V19.2945H19.2945V17.8889C19.2945 17.0712 15.295 15.2056 11.5 15.2056Z" fill="white"/>
</mask>
<g mask="url(#mask0_0_288)">
</g>
</svg>
