<svg width="23" height="23" viewBox="0 0 23 23" fill="none" xmlns="http://www.w3.org/2000/svg">
<path fill-rule="evenodd" clip-rule="evenodd" d="M5.11122 15.3333H7.66678C7.66678 16.7133 9.41734 17.8889 11.5001 17.8889C13.5829 17.8889 15.3335 16.7133 15.3335 15.3333C15.3335 13.9278 14.0046 13.4167 11.1934 12.7395C8.48456 12.0622 5.11122 11.2189 5.11122 7.66667C5.11122 5.37945 6.98956 3.43723 9.58345 2.78556V0H13.4168V2.78556C16.0107 3.43723 17.889 5.37945 17.889 7.66667H15.3335C15.3335 6.28667 13.5829 5.11112 11.5001 5.11112C9.41734 5.11112 7.66678 6.28667 7.66678 7.66667C7.66678 9.07223 8.99567 9.58334 11.8068 10.2606C14.5157 10.9378 17.889 11.7811 17.889 15.3333C17.889 17.6206 16.0107 19.5628 13.4168 20.2145V23H9.58345V20.2145C6.98956 19.5628 5.11122 17.6206 5.11122 15.3333Z" fill="white"/>
<mask id="mask0_0_782" style="mask-type:luminance" maskUnits="userSpaceOnUse" x="5" y="0" width="13" height="23">
<path fill-rule="evenodd" clip-rule="evenodd" d="M5.11122 15.3333H7.66678C7.66678 16.7133 9.41734 17.8889 11.5001 17.8889C13.5829 17.8889 15.3335 16.7133 15.3335 15.3333C15.3335 13.9278 14.0046 13.4167 11.1934 12.7395C8.48456 12.0622 5.11122 11.2189 5.11122 7.66667C5.11122 5.37945 6.98956 3.43723 9.58345 2.78556V0H13.4168V2.78556C16.0107 3.43723 17.889 5.37945 17.889 7.66667H15.3335C15.3335 6.28667 13.5829 5.11112 11.5001 5.11112C9.41734 5.11112 7.66678 6.28667 7.66678 7.66667C7.66678 9.07223 8.99567 9.58334 11.8068 10.2606C14.5157 10.9378 17.889 11.7811 17.889 15.3333C17.889 17.6206 16.0107 19.5628 13.4168 20.2145V23H9.58345V20.2145C6.98956 19.5628 5.11122 17.6206 5.11122 15.3333Z" fill="white"/>
</mask>
<g mask="url(#mask0_0_782)">
</g>
</svg>
