<svg width="18" height="18" viewBox="0 0 18 18" fill="none" xmlns="http://www.w3.org/2000/svg">
<path fill-rule="evenodd" clip-rule="evenodd" d="M6 0V1H1V3H2V16C2 17.1046 2.89543 18 4 18H14C15.1046 18 16 17.1046 16 16V3H17V1H12V0H6ZM4 3H14V16H4V3ZM6 5V14H8V5H6ZM10 5V14H12V5H10Z" fill="#FF4E4E"/>
<mask id="mask0_0_1424" style="mask-type:luminance" maskUnits="userSpaceOnUse" x="1" y="0" width="16" height="18">
<path fill-rule="evenodd" clip-rule="evenodd" d="M6 0V1H1V3H2V16C2 17.1046 2.89543 18 4 18H14C15.1046 18 16 17.1046 16 16V3H17V1H12V0H6ZM4 3H14V16H4V3ZM6 5V14H8V5H6ZM10 5V14H12V5H10Z" fill="white"/>
</mask>
<g mask="url(#mask0_0_1424)">
</g>
</svg>
