<svg width="37" height="37" viewBox="0 0 37 37" fill="none" xmlns="http://www.w3.org/2000/svg">
<path fill-rule="evenodd" clip-rule="evenodd" d="M31.158 17.5264C31.158 19.8437 30.4959 22.0053 29.4053 23.9137L27.0101 21.5185C27.5359 20.3111 27.8474 18.9674 27.8474 17.5264H31.158ZM23.3685 17.8379L11.6842 6.19265V5.84212C11.6842 2.61561 14.2998 0 17.5264 0C20.7529 0 23.3685 2.61561 23.3685 5.84212V17.5264V17.8379ZM2.47316 1.94737L35.0527 34.5269L32.5796 37.0001L24.4201 28.8406C22.9206 29.7364 21.2458 30.3401 19.4737 30.6127V37.0001H15.579V30.6127C9.1916 29.6585 3.89475 24.1669 3.89475 17.5264H7.20528C7.20528 23.3685 12.1516 27.458 17.5264 27.458C19.1037 27.458 20.6422 27.088 22.0248 26.4453L18.7922 23.2127L17.5264 23.3685C14.2998 23.3685 11.6842 20.7529 11.6842 17.5264V16.1243L0 4.42054L2.47316 1.94737Z" fill="#1E1F20"/>
</svg>
