<svg width="24" height="24" viewBox="0 0 24 24" fill="none" xmlns="http://www.w3.org/2000/svg">
<path fill-rule="evenodd" clip-rule="evenodd" d="M11.9999 1.3335C14.9454 1.3335 17.3333 3.72131 17.3333 6.66683C17.3333 9.61235 14.9454 12.0002 11.9999 12.0002C9.0544 12.0002 6.66659 9.61235 6.66659 6.66683C6.66659 3.72131 9.0544 1.3335 11.9999 1.3335ZM11.9999 4.00016C10.5272 4.00016 9.33325 5.19407 9.33325 6.66683C9.33325 8.13959 10.5272 9.3335 11.9999 9.3335C13.4727 9.3335 14.6666 8.13959 14.6666 6.66683C14.6666 5.19407 13.4727 4.00016 11.9999 4.00016ZM11.9999 13.3335C15.5599 13.3335 22.6666 15.1068 22.6666 18.6668V22.6668H1.33325V18.6668C1.33325 15.1068 8.43992 13.3335 11.9999 13.3335ZM11.9999 15.8668C8.03989 15.8668 3.86655 17.8135 3.86655 18.6668V20.1335H20.1332V18.6668C20.1332 17.8135 15.9599 15.8668 11.9999 15.8668Z" fill="#666AEC"/>
<mask id="mask0_0_713" style="mask-type:luminance" maskUnits="userSpaceOnUse" x="1" y="1" width="22" height="22">
<path fill-rule="evenodd" clip-rule="evenodd" d="M11.9999 1.3335C14.9454 1.3335 17.3333 3.72131 17.3333 6.66683C17.3333 9.61235 14.9454 12.0002 11.9999 12.0002C9.0544 12.0002 6.66659 9.61235 6.66659 6.66683C6.66659 3.72131 9.0544 1.3335 11.9999 1.3335ZM11.9999 4.00016C10.5272 4.00016 9.33325 5.19407 9.33325 6.66683C9.33325 8.13959 10.5272 9.3335 11.9999 9.3335C13.4727 9.3335 14.6666 8.13959 14.6666 6.66683C14.6666 5.19407 13.4727 4.00016 11.9999 4.00016ZM11.9999 13.3335C15.5599 13.3335 22.6666 15.1068 22.6666 18.6668V22.6668H1.33325V18.6668C1.33325 15.1068 8.43992 13.3335 11.9999 13.3335ZM11.9999 15.8668C8.03989 15.8668 3.86655 17.8135 3.86655 18.6668V20.1335H20.1332V18.6668C20.1332 17.8135 15.9599 15.8668 11.9999 15.8668Z" fill="white"/>
</mask>
<g mask="url(#mask0_0_713)">
</g>
</svg>
