<svg width="78" height="78" viewBox="0 0 78 78" fill="none" xmlns="http://www.w3.org/2000/svg">
<path fill-rule="evenodd" clip-rule="evenodd" d="M6.5 25.9999V71.4999H65V77.9999H6.5C2.90875 77.9999 0 75.1074 0 71.4999V25.9999H6.5ZM74.8475 20.4423L45.5 2.07983L16.1525 20.4423C14.2675 21.5798 13 23.6273 13 25.9998V58.4998C13 62.0748 15.925 64.9998 19.5 64.9998H71.5C75.075 64.9998 78 62.0748 78 58.4998V25.9998C78 23.6273 76.7325 21.5798 74.8475 20.4423ZM71.5 58.4999H19.5V32.4999L45.5 48.7499L71.5 32.4999V58.4999ZM45.5 42.2499L19.5 25.9999L45.5 9.7499L71.5 25.9999L45.5 42.2499Z" fill="#8F92A1"/>
</svg>
