<svg width="23" height="23" viewBox="0 0 23 23" fill="none" xmlns="http://www.w3.org/2000/svg">
<path fill-rule="evenodd" clip-rule="evenodd" d="M11.3175 17.5238C10.1018 17.5238 9.12704 16.5381 9.12704 15.3333C9.12704 14.1176 10.1018 13.1429 11.3175 13.1429C12.5273 13.1429 13.508 14.1236 13.508 15.3333C13.508 16.5431 12.5273 17.5238 11.3175 17.5238ZM17.889 20.8095V9.85715H4.74611V20.8095H17.889ZM17.889 7.66667C19.0987 7.66667 20.0794 8.64739 20.0794 9.85715V20.8095C20.0794 22.0193 19.0987 23 17.889 23H4.74609C3.53037 23 2.55561 22.0143 2.55561 20.8095V9.85715C2.55561 8.64144 3.53037 7.66667 4.74609 7.66667H5.84133V5.4762C5.84133 2.45178 8.29311 0 11.3175 0C12.7699 0 14.1628 0.576955 15.1898 1.60394C16.2168 2.63093 16.7937 4.02382 16.7937 5.4762V7.66667H17.889ZM11.3175 2.19048C9.50285 2.19048 8.03179 3.66155 8.03179 5.4762V7.66668H14.6032V5.4762C14.6032 3.66155 13.1322 2.19048 11.3175 2.19048Z" fill="white"/>
<mask id="mask0_0_1529" style="mask-type:luminance" maskUnits="userSpaceOnUse" x="2" y="0" width="19" height="23">
<path fill-rule="evenodd" clip-rule="evenodd" d="M11.3175 17.5238C10.1018 17.5238 9.12704 16.5381 9.12704 15.3333C9.12704 14.1176 10.1018 13.1429 11.3175 13.1429C12.5273 13.1429 13.508 14.1236 13.508 15.3333C13.508 16.5431 12.5273 17.5238 11.3175 17.5238ZM17.889 20.8095V9.85715H4.74611V20.8095H17.889ZM17.889 7.66667C19.0987 7.66667 20.0794 8.64739 20.0794 9.85715V20.8095C20.0794 22.0193 19.0987 23 17.889 23H4.74609C3.53037 23 2.55561 22.0143 2.55561 20.8095V9.85715C2.55561 8.64144 3.53037 7.66667 4.74609 7.66667H5.84133V5.4762C5.84133 2.45178 8.29311 0 11.3175 0C12.7699 0 14.1628 0.576955 15.1898 1.60394C16.2168 2.63093 16.7937 4.02382 16.7937 5.4762V7.66667H17.889ZM11.3175 2.19048C9.50285 2.19048 8.03179 3.66155 8.03179 5.4762V7.66668H14.6032V5.4762C14.6032 3.66155 13.1322 2.19048 11.3175 2.19048Z" fill="white"/>
</mask>
<g mask="url(#mask0_0_1529)">
</g>
</svg>
