<svg width="32" height="32" viewBox="0 0 32 32" fill="none" xmlns="http://www.w3.org/2000/svg">
<path fill-rule="evenodd" clip-rule="evenodd" d="M20.3637 3.55566C17.1504 3.55566 14.5455 6.16055 14.5455 9.37385C14.5455 12.5871 17.1504 15.192 20.3637 15.192C23.577 15.192 26.1819 12.5871 26.1819 9.37385C26.1819 6.16055 23.577 3.55566 20.3637 3.55566ZM20.3636 6.3193C22.0509 6.3193 23.4182 7.68658 23.4182 9.37385C23.4182 11.0611 22.0509 12.4284 20.3636 12.4284C18.6766 12.4284 17.3091 11.0608 17.3091 9.37385C17.3091 7.68687 18.6766 6.3193 20.3636 6.3193ZM4.36364 7.9193V12.2829H0V15.192H4.36364V19.5557H7.27273V15.192H11.6364V12.2829H7.27273V7.9193H4.36364ZM20.3637 16.6466C16.4801 16.6466 8.72734 18.5811 8.72734 22.4648V26.8284H32.0001V22.4648C32.0001 18.5811 24.2473 16.6466 20.3637 16.6466ZM20.3636 19.4102C24.6836 19.4102 29.2364 21.5338 29.2364 22.4648V24.0648H11.4909V22.4648C11.4909 21.5338 16 19.4102 20.3636 19.4102Z" fill="#8F92A1"/>
<mask id="mask0_355_7879" style="mask-type:luminance" maskUnits="userSpaceOnUse" x="0" y="3" width="32" height="24">
<path fill-rule="evenodd" clip-rule="evenodd" d="M20.3637 3.55566C17.1504 3.55566 14.5455 6.16055 14.5455 9.37385C14.5455 12.5871 17.1504 15.192 20.3637 15.192C23.577 15.192 26.1819 12.5871 26.1819 9.37385C26.1819 6.16055 23.577 3.55566 20.3637 3.55566ZM20.3636 6.3193C22.0509 6.3193 23.4182 7.68658 23.4182 9.37385C23.4182 11.0611 22.0509 12.4284 20.3636 12.4284C18.6766 12.4284 17.3091 11.0608 17.3091 9.37385C17.3091 7.68687 18.6766 6.3193 20.3636 6.3193ZM4.36364 7.9193V12.2829H0V15.192H4.36364V19.5557H7.27273V15.192H11.6364V12.2829H7.27273V7.9193H4.36364ZM20.3637 16.6466C16.4801 16.6466 8.72734 18.5811 8.72734 22.4648V26.8284H32.0001V22.4648C32.0001 18.5811 24.2473 16.6466 20.3637 16.6466ZM20.3636 19.4102C24.6836 19.4102 29.2364 21.5338 29.2364 22.4648V24.0648H11.4909V22.4648C11.4909 21.5338 16 19.4102 20.3636 19.4102Z" fill="white"/>
</mask>
<g mask="url(#mask0_355_7879)">
</g>
</svg>
