<svg width="31" height="13" viewBox="0 0 31 13" fill="none" xmlns="http://www.w3.org/2000/svg">
<path fill-rule="evenodd" clip-rule="evenodd" d="M3.5 7C5.433 7 7 5.433 7 3.5C7 1.567 5.433 0 3.5 0C1.567 0 0 1.567 0 3.5C0 5.433 1.567 7 3.5 7Z" fill="#8F92A1" fill-opacity="0.8"/>
<path fill-rule="evenodd" clip-rule="evenodd" d="M15.5 10C17.433 10 19 8.433 19 6.5C19 4.567 17.433 3 15.5 3C13.567 3 12 4.567 12 6.5C12 8.433 13.567 10 15.5 10Z" fill="#8F92A1" fill-opacity="0.6"/>
<path fill-rule="evenodd" clip-rule="evenodd" d="M27.5 13C29.433 13 31 11.433 31 9.5C31 7.567 29.433 6 27.5 6C25.567 6 24 7.567 24 9.5C24 11.433 25.567 13 27.5 13Z" fill="#8F92A1" fill-opacity="0.2"/>
</svg>
