<svg width="25" height="25" viewBox="0 0 25 25" fill="none" xmlns="http://www.w3.org/2000/svg">
<path fill-rule="evenodd" clip-rule="evenodd" d="M5.02778 10.8194C7.02778 14.75 10.25 17.9722 14.1806 19.9722L17.2361 16.9167C17.625 16.5278 18.1667 16.4167 18.6528 16.5694C20.2083 17.0833 21.875 17.3611 23.6111 17.3611C24.3782 17.3611 25 17.9829 25 18.75V23.6111C25 24.3782 24.3782 25 23.6111 25C10.5711 25 0 14.4289 0 1.38889C0 1.02053 0.146329 0.667263 0.406796 0.406796C0.667263 0.146329 1.02053 0 1.38889 0H6.25C7.01706 0 7.63889 0.621827 7.63889 1.38889C7.63889 3.125 7.91667 4.79167 8.43056 6.34722C8.58333 6.83333 8.47222 7.375 8.08333 7.76389L5.02778 10.8194Z" fill="#8F92A1"/>
<mask id="mask0_355_8055" style="mask-type:luminance" maskUnits="userSpaceOnUse" x="0" y="0" width="25" height="25">
<path fill-rule="evenodd" clip-rule="evenodd" d="M5.02778 10.8194C7.02778 14.75 10.25 17.9722 14.1806 19.9722L17.2361 16.9167C17.625 16.5278 18.1667 16.4167 18.6528 16.5694C20.2083 17.0833 21.875 17.3611 23.6111 17.3611C24.3782 17.3611 25 17.9829 25 18.75V23.6111C25 24.3782 24.3782 25 23.6111 25C10.5711 25 0 14.4289 0 1.38889C0 1.02053 0.146329 0.667263 0.406796 0.406796C0.667263 0.146329 1.02053 0 1.38889 0H6.25C7.01706 0 7.63889 0.621827 7.63889 1.38889C7.63889 3.125 7.91667 4.79167 8.43056 6.34722C8.58333 6.83333 8.47222 7.375 8.08333 7.76389L5.02778 10.8194Z" fill="white"/>
</mask>
<g mask="url(#mask0_355_8055)">
</g>
</svg>
