<svg width="23" height="23" viewBox="0 0 23 23" fill="none" xmlns="http://www.w3.org/2000/svg">
<path fill-rule="evenodd" clip-rule="evenodd" d="M16.2278 17.25H5.87784V9.77501C5.87784 6.90001 8.17784 4.60001 11.0528 4.60001C13.9278 4.60001 16.2278 6.90001 16.2278 9.77501V17.25ZM18.5278 16.1V9.77501C18.5278 6.24451 16.0668 3.289 12.7778 2.507V1.725C12.7778 0.77231 12.0055 0 11.0528 0C10.1001 0 9.32781 0.77231 9.32781 1.725V2.507C6.02731 3.289 3.57781 6.24451 3.57781 9.77501V16.1L1.27781 18.4V19.55H20.8278V18.4L18.5278 16.1ZM11.0528 23C12.3231 23 13.3528 21.9703 13.3528 20.7H8.75284C8.75284 21.9703 9.78258 23 11.0528 23Z" fill="white"/>
<mask id="mask0_0_224" style="mask-type:luminance" maskUnits="userSpaceOnUse" x="1" y="0" width="20" height="23">
<path fill-rule="evenodd" clip-rule="evenodd" d="M16.2278 17.25H5.87784V9.77501C5.87784 6.90001 8.17784 4.60001 11.0528 4.60001C13.9278 4.60001 16.2278 6.90001 16.2278 9.77501V17.25ZM18.5278 16.1V9.77501C18.5278 6.24451 16.0668 3.289 12.7778 2.507V1.725C12.7778 0.77231 12.0055 0 11.0528 0C10.1001 0 9.32781 0.77231 9.32781 1.725V2.507C6.02731 3.289 3.57781 6.24451 3.57781 9.77501V16.1L1.27781 18.4V19.55H20.8278V18.4L18.5278 16.1ZM11.0528 23C12.3231 23 13.3528 21.9703 13.3528 20.7H8.75284C8.75284 21.9703 9.78258 23 11.0528 23Z" fill="white"/>
</mask>
<g mask="url(#mask0_0_224)">
</g>
</svg>
