<svg width="23" height="23" viewBox="0 0 23 23" fill="none" xmlns="http://www.w3.org/2000/svg">
<path fill-rule="evenodd" clip-rule="evenodd" d="M13.6905 6.754H12.0476V12.2302L16.7352 15.0121L17.5238 13.6869L13.6905 11.4088V6.754ZM13.1429 1.27781C7.69891 1.27781 3.28572 5.691 3.28572 11.135H0L4.33715 15.5488L8.76191 11.135H5.4762C5.4762 6.90077 8.90868 3.46828 13.1429 3.46828C17.3771 3.46828 20.8095 6.90077 20.8095 11.135C20.8095 15.3691 17.3771 18.8016 13.1429 18.8016C11.0291 18.8016 9.11239 17.9364 7.73239 16.5454L6.17715 18.1007C7.96239 19.8969 10.4048 20.9921 13.1429 20.9921C18.5868 20.9921 23 16.5789 23 11.135C23 5.691 18.5868 1.27781 13.1429 1.27781Z" fill="white"/>
<mask id="mask0_0_455" style="mask-type:luminance" maskUnits="userSpaceOnUse" x="0" y="1" width="23" height="20">
<path fill-rule="evenodd" clip-rule="evenodd" d="M13.6905 6.754H12.0476V12.2302L16.7352 15.0121L17.5238 13.6869L13.6905 11.4088V6.754ZM13.1429 1.27781C7.69891 1.27781 3.28572 5.691 3.28572 11.135H0L4.33715 15.5488L8.76191 11.135H5.4762C5.4762 6.90077 8.90868 3.46828 13.1429 3.46828C17.3771 3.46828 20.8095 6.90077 20.8095 11.135C20.8095 15.3691 17.3771 18.8016 13.1429 18.8016C11.0291 18.8016 9.11239 17.9364 7.73239 16.5454L6.17715 18.1007C7.96239 19.8969 10.4048 20.9921 13.1429 20.9921C18.5868 20.9921 23 16.5789 23 11.135C23 5.691 18.5868 1.27781 13.1429 1.27781Z" fill="white"/>
</mask>
<g mask="url(#mask0_0_455)">
</g>
</svg>
