<svg width="37" height="37" viewBox="0 0 37 37" fill="none" xmlns="http://www.w3.org/2000/svg">
<path fill-rule="evenodd" clip-rule="evenodd" d="M18.5 15.4166C16.0334 15.4166 13.6438 15.802 11.4084 16.5266V21.3058C11.4084 21.9224 11.0538 22.4466 10.545 22.6933C9.03419 23.4487 7.6621 24.42 6.42877 25.5454C6.16668 25.8229 5.78127 25.9925 5.39585 25.9925C4.93335 25.9925 4.54793 25.8075 4.27043 25.53L0.447085 21.7066C0.169584 21.4291 0 21.0437 0 20.6274C0 20.1958 0.169584 19.8104 0.447085 19.5329C5.14918 15.062 11.5009 12.3333 18.5 12.3333C25.4992 12.3333 31.8509 15.062 36.553 19.5329C36.8305 19.8104 37.0001 20.1958 37.0001 20.6274C37.0001 21.0437 36.8305 21.4291 36.553 21.7066L32.7297 25.53C32.4522 25.8075 32.0668 25.9925 31.6043 25.9925C31.2188 25.9925 30.8334 25.8229 30.5559 25.5454C29.338 24.42 27.9659 23.4487 26.4551 22.6933C25.9463 22.4466 25.5917 21.9224 25.5917 21.3058V16.5266C23.3563 15.802 20.9667 15.4166 18.5 15.4166Z" fill="white"/>
</svg>
