<svg width="23" height="23" viewBox="0 0 23 23" fill="none" xmlns="http://www.w3.org/2000/svg">
<path fill-rule="evenodd" clip-rule="evenodd" d="M2.3 2.55561H20.7C21.9703 2.55561 23 3.58535 23 4.85561V18.6556C23 19.9259 21.9703 20.9556 20.7 20.9556H2.3C1.0235 20.9556 0 19.9206 0 18.6556V4.85561C0 3.57911 1.0235 2.55561 2.3 2.55561ZM11.5 10.6056L20.7 4.85561H2.30001L11.5 10.6056ZM2.30001 18.6556H20.7V7.58111L11.5 13.3196L2.30001 7.58111V18.6556Z" fill="#1E1F20"/>
<mask id="mask0_0_1703" style="mask-type:luminance" maskUnits="userSpaceOnUse" x="0" y="2" width="23" height="19">
<path fill-rule="evenodd" clip-rule="evenodd" d="M2.3 2.55561H20.7C21.9703 2.55561 23 3.58535 23 4.85561V18.6556C23 19.9259 21.9703 20.9556 20.7 20.9556H2.3C1.0235 20.9556 0 19.9206 0 18.6556V4.85561C0 3.57911 1.0235 2.55561 2.3 2.55561ZM11.5 10.6056L20.7 4.85561H2.30001L11.5 10.6056ZM2.30001 18.6556H20.7V7.58111L11.5 13.3196L2.30001 7.58111V18.6556Z" fill="white"/>
</mask>
<g mask="url(#mask0_0_1703)">
</g>
</svg>
