<svg width="24" height="24" viewBox="0 0 24 24" fill="none" xmlns="http://www.w3.org/2000/svg">
<path fill-rule="evenodd" clip-rule="evenodd" d="M8.39992 20.3999V13.1999H10.7999H13.1999H15.5999V20.3999H19.1999V10.6919L11.9999 3.49192L4.79992 10.6919V20.3999H8.39992ZM11.9999 0.10791L23.8919 11.9999H21.5999V22.7999H13.1999V15.5999H10.7999V22.7999H2.39991V11.9999H0.10791L11.9999 0.10791Z" fill="white"/>
<mask id="mask0_0_1447" style="mask-type:luminance" maskUnits="userSpaceOnUse" x="0" y="0" width="24" height="23">
<path fill-rule="evenodd" clip-rule="evenodd" d="M8.39992 20.3999V13.1999H10.7999H13.1999H15.5999V20.3999H19.1999V10.6919L11.9999 3.49192L4.79992 10.6919V20.3999H8.39992ZM11.9999 0.10791L23.8919 11.9999H21.5999V22.7999H13.1999V15.5999H10.7999V22.7999H2.39991V11.9999H0.10791L11.9999 0.10791Z" fill="white"/>
</mask>
<g mask="url(#mask0_0_1447)">
</g>
</svg>
