<svg width="23" height="23" viewBox="0 0 23 23" fill="none" xmlns="http://www.w3.org/2000/svg">
<path fill-rule="evenodd" clip-rule="evenodd" d="M20.4585 15.4215C21.551 12.926 21.551 10.0625 20.4585 7.57851L17.3075 9.00451C17.9975 10.5915 17.9975 12.397 17.319 13.9955L20.4585 15.4215ZM15.433 2.5415C12.9375 1.449 10.074 1.449 7.57848 2.5415L9.00449 5.68101C10.603 5.0025 12.4085 5.0025 14.007 5.69251L15.433 2.5415ZM2.54148 7.56701C1.44898 10.074 1.44898 12.926 2.54148 15.433L5.69248 13.9955C5.00248 12.4085 5.00248 10.5915 5.69248 8.99301L2.54148 7.56701ZM7.57848 20.4585C10.074 21.551 12.9375 21.551 15.433 20.447L14.007 17.3075C12.42 17.9975 10.603 17.9975 9.01598 17.319L7.57848 20.4585ZM11.5 0C14.55 0 17.4751 1.21161 19.6317 3.36828C21.7884 5.52495 23 8.45002 23 11.5C23 17.8513 17.8513 23 11.5 23C8.45002 23 5.52495 21.7884 3.36828 19.6317C1.21161 17.4751 0 14.55 0 11.5C0 8.45002 1.21161 5.52495 3.36828 3.36828C5.52495 1.21161 8.45002 0 11.5 0ZM11.5 6.90001C8.95947 6.90001 6.89998 8.9595 6.89998 11.5C6.89998 14.0405 8.95947 16.1 11.5 16.1C14.0405 16.1 16.1 14.0405 16.1 11.5C16.1 8.9595 14.0405 6.90001 11.5 6.90001Z" fill="white"/>
<mask id="mask0_0_1331" style="mask-type:luminance" maskUnits="userSpaceOnUse" x="0" y="0" width="23" height="23">
<path fill-rule="evenodd" clip-rule="evenodd" d="M20.4585 15.4215C21.551 12.926 21.551 10.0625 20.4585 7.57851L17.3075 9.00451C17.9975 10.5915 17.9975 12.397 17.319 13.9955L20.4585 15.4215ZM15.433 2.5415C12.9375 1.449 10.074 1.449 7.57848 2.5415L9.00449 5.68101C10.603 5.0025 12.4085 5.0025 14.007 5.69251L15.433 2.5415ZM2.54148 7.56701C1.44898 10.074 1.44898 12.926 2.54148 15.433L5.69248 13.9955C5.00248 12.4085 5.00248 10.5915 5.69248 8.99301L2.54148 7.56701ZM7.57848 20.4585C10.074 21.551 12.9375 21.551 15.433 20.447L14.007 17.3075C12.42 17.9975 10.603 17.9975 9.01598 17.319L7.57848 20.4585ZM11.5 0C14.55 0 17.4751 1.21161 19.6317 3.36828C21.7884 5.52495 23 8.45002 23 11.5C23 17.8513 17.8513 23 11.5 23C8.45002 23 5.52495 21.7884 3.36828 19.6317C1.21161 17.4751 0 14.55 0 11.5C0 8.45002 1.21161 5.52495 3.36828 3.36828C5.52495 1.21161 8.45002 0 11.5 0ZM11.5 6.90001C8.95947 6.90001 6.89998 8.9595 6.89998 11.5C6.89998 14.0405 8.95947 16.1 11.5 16.1C14.0405 16.1 16.1 14.0405 16.1 11.5C16.1 8.9595 14.0405 6.90001 11.5 6.90001Z" fill="white"/>
</mask>
<g mask="url(#mask0_0_1331)">
</g>
</svg>
