<svg width="30" height="30" viewBox="0 0 30 30" fill="none" xmlns="http://www.w3.org/2000/svg">
<path fill-rule="evenodd" clip-rule="evenodd" d="M15.0003 9C18.314 9 21.0003 11.6863 21.0003 15C21.0003 18.3137 18.314 21 15.0003 21C11.6866 21 9.00031 18.3137 9.00031 15C9.00031 11.6863 11.6866 9 15.0003 9ZM15.0002 12C13.3433 12 12.0002 13.3432 12.0002 15C12.0002 16.6569 13.3433 18 15.0002 18C16.657 18 18.0002 16.6569 18.0002 15C18.0002 13.3432 16.657 12 15.0002 12ZM12.0002 30C11.6252 30 11.3102 29.73 11.2502 29.37L10.6952 25.395C9.75025 25.02 8.94025 24.51 8.16025 23.91L4.42525 25.425C4.09525 25.545 3.69025 25.425 3.51025 25.095L0.510247 19.905C0.315247 19.575 0.405247 19.17 0.690247 18.945L3.85525 16.455L3.75025 15L3.85525 13.5L0.690247 11.055C0.405247 10.83 0.315247 10.425 0.510247 10.095L3.51025 4.905C3.69025 4.575 4.09525 4.44 4.42525 4.575L8.16025 6.075C8.94025 5.49 9.75025 4.98 10.6952 4.605L11.2502 0.63C11.3102 0.27 11.6252 0 12.0002 0H18.0002C18.3752 0 18.6902 0.27 18.7502 0.63L19.3052 4.605C20.2502 4.98 21.0602 5.49 21.8402 6.075L25.5752 4.575C25.9052 4.44 26.3102 4.575 26.4902 4.905L29.4902 10.095C29.6852 10.425 29.5952 10.83 29.3102 11.055L26.1452 13.5L26.2502 15L26.1452 16.5L29.3102 18.945C29.5952 19.17 29.6852 19.575 29.4902 19.905L26.4902 25.095C26.3102 25.425 25.9052 25.56 25.5752 25.425L21.8402 23.925C21.0602 24.51 20.2502 25.02 19.3052 25.395L18.7502 29.37C18.6902 29.73 18.3752 30 18.0002 30H12.0002ZM13.8753 2.99999L13.3203 6.91499C11.5203 7.28999 9.93029 8.24999 8.77529 9.58499L5.16029 8.02499L4.03529 9.97499L7.20029 12.3C6.60029 14.055 6.60029 15.96 7.20029 17.7L4.02029 20.04L5.14529 21.99L8.79029 20.43C9.94529 21.75 11.5203 22.71 13.3053 23.07L13.8603 27H16.1403L16.6953 23.085C18.4803 22.71 20.0553 21.75 21.2103 20.43L24.8553 21.99L25.9803 20.04L22.8003 17.715C23.4003 15.96 23.4003 14.055 22.8003 12.3L25.9653 9.97499L24.8403 8.02499L21.2253 9.58499C20.0703 8.24999 18.4803 7.28999 16.6803 6.92999L16.1253 2.99999H13.8753Z" fill="white"/>
<mask id="mask0_316_7508" style="mask-type:luminance" maskUnits="userSpaceOnUse" x="0" y="0" width="30" height="30">
<path fill-rule="evenodd" clip-rule="evenodd" d="M15.0003 9C18.314 9 21.0003 11.6863 21.0003 15C21.0003 18.3137 18.314 21 15.0003 21C11.6866 21 9.00031 18.3137 9.00031 15C9.00031 11.6863 11.6866 9 15.0003 9ZM15.0002 12C13.3433 12 12.0002 13.3432 12.0002 15C12.0002 16.6569 13.3433 18 15.0002 18C16.657 18 18.0002 16.6569 18.0002 15C18.0002 13.3432 16.657 12 15.0002 12ZM12.0002 30C11.6252 30 11.3102 29.73 11.2502 29.37L10.6952 25.395C9.75025 25.02 8.94025 24.51 8.16025 23.91L4.42525 25.425C4.09525 25.545 3.69025 25.425 3.51025 25.095L0.510247 19.905C0.315247 19.575 0.405247 19.17 0.690247 18.945L3.85525 16.455L3.75025 15L3.85525 13.5L0.690247 11.055C0.405247 10.83 0.315247 10.425 0.510247 10.095L3.51025 4.905C3.69025 4.575 4.09525 4.44 4.42525 4.575L8.16025 6.075C8.94025 5.49 9.75025 4.98 10.6952 4.605L11.2502 0.63C11.3102 0.27 11.6252 0 12.0002 0H18.0002C18.3752 0 18.6902 0.27 18.7502 0.63L19.3052 4.605C20.2502 4.98 21.0602 5.49 21.8402 6.075L25.5752 4.575C25.9052 4.44 26.3102 4.575 26.4902 4.905L29.4902 10.095C29.6852 10.425 29.5952 10.83 29.3102 11.055L26.1452 13.5L26.2502 15L26.1452 16.5L29.3102 18.945C29.5952 19.17 29.6852 19.575 29.4902 19.905L26.4902 25.095C26.3102 25.425 25.9052 25.56 25.5752 25.425L21.8402 23.925C21.0602 24.51 20.2502 25.02 19.3052 25.395L18.7502 29.37C18.6902 29.73 18.3752 30 18.0002 30H12.0002ZM13.8753 2.99999L13.3203 6.91499C11.5203 7.28999 9.93029 8.24999 8.77529 9.58499L5.16029 8.02499L4.03529 9.97499L7.20029 12.3C6.60029 14.055 6.60029 15.96 7.20029 17.7L4.02029 20.04L5.14529 21.99L8.79029 20.43C9.94529 21.75 11.5203 22.71 13.3053 23.07L13.8603 27H16.1403L16.6953 23.085C18.4803 22.71 20.0553 21.75 21.2103 20.43L24.8553 21.99L25.9803 20.04L22.8003 17.715C23.4003 15.96 23.4003 14.055 22.8003 12.3L25.9653 9.97499L24.8403 8.02499L21.2253 9.58499C20.0703 8.24999 18.4803 7.28999 16.6803 6.92999L16.1253 2.99999H13.8753Z" fill="white"/>
</mask>
<g mask="url(#mask0_316_7508)">
</g>
</svg>
