<svg width="23" height="23" viewBox="0 0 23 23" fill="none" xmlns="http://www.w3.org/2000/svg">
<path fill-rule="evenodd" clip-rule="evenodd" d="M11.5 16.6111C12.9114 16.6111 14.0556 17.7553 14.0556 19.1667C14.0556 20.5781 12.9114 21.7222 11.5 21.7222C10.0886 21.7222 8.94444 20.5781 8.94444 19.1667C8.94444 17.7553 10.0886 16.6111 11.5 16.6111ZM11.5 8.94447C12.9114 8.94447 14.0556 10.0886 14.0556 11.5C14.0556 12.9114 12.9114 14.0556 11.5 14.0556C10.0886 14.0556 8.94444 12.9114 8.94444 11.5C8.94444 10.0886 10.0886 8.94447 11.5 8.94447ZM11.5 1.2778C12.9114 1.2778 14.0556 2.42197 14.0556 3.83336C14.0556 5.24475 12.9114 6.38892 11.5 6.38892C10.0886 6.38892 8.94444 5.24475 8.94444 3.83336C8.94444 2.42197 10.0886 1.2778 11.5 1.2778Z" fill="#1E1F20"/>
<mask id="mask0_0_1040" style="mask-type:luminance" maskUnits="userSpaceOnUse" x="8" y="1" width="7" height="21">
<path fill-rule="evenodd" clip-rule="evenodd" d="M11.5 16.6111C12.9114 16.6111 14.0556 17.7553 14.0556 19.1667C14.0556 20.5781 12.9114 21.7222 11.5 21.7222C10.0886 21.7222 8.94444 20.5781 8.94444 19.1667C8.94444 17.7553 10.0886 16.6111 11.5 16.6111ZM11.5 8.94447C12.9114 8.94447 14.0556 10.0886 14.0556 11.5C14.0556 12.9114 12.9114 14.0556 11.5 14.0556C10.0886 14.0556 8.94444 12.9114 8.94444 11.5C8.94444 10.0886 10.0886 8.94447 11.5 8.94447ZM11.5 1.2778C12.9114 1.2778 14.0556 2.42197 14.0556 3.83336C14.0556 5.24475 12.9114 6.38892 11.5 6.38892C10.0886 6.38892 8.94444 5.24475 8.94444 3.83336C8.94444 2.42197 10.0886 1.2778 11.5 1.2778Z" fill="white"/>
</mask>
<g mask="url(#mask0_0_1040)">
</g>
</svg>
